<svg width="42" height="42" viewBox="0 0 42 42" fill="none" xmlns="http://www.w3.org/2000/svg">
<circle cx="21" cy="21" r="20" stroke="white" stroke-width="2"/>
<path d="M10.5558 19.762H12.3898V24.004C12.3898 24.452 12.5251 24.8253 12.7958 25.124C13.0758 25.4133 13.4398 25.558 13.8878 25.558C14.3358 25.558 14.6998 25.418 14.9798 25.138C15.2598 24.8487 15.3998 24.4707 15.3998 24.004V19.762H17.2338V27H15.3998V26.356C15.1478 26.6173 14.8491 26.818 14.5038 26.958C14.1678 27.098 13.8038 27.168 13.4118 27.168C12.9918 27.168 12.6044 27.098 12.2498 26.958C11.9044 26.8087 11.6058 26.608 11.3538 26.356C11.1018 26.104 10.9058 25.81 10.7658 25.474C10.6258 25.1287 10.5558 24.76 10.5558 24.368V19.762ZM28.1731 24.27L29.9791 17.2H31.9391L29.1531 27H27.2491L24.9811 20.056L22.6991 27H20.7951L18.0091 17.2H20.0391L21.8451 24.284L24.1691 17.2H25.8491L28.1731 24.27Z" fill="white"/>
</svg>
