<svg width="19" height="19" viewBox="0 0 19 19" fill="none" xmlns="http://www.w3.org/2000/svg">
<path fill-rule="evenodd" clip-rule="evenodd" d="M9.16667 3.75C9.16667 5.82107 7.48773 7.5 5.41667 7.5C3.3456 7.5 1.66667 5.82107 1.66667 3.75C1.66667 1.67893 3.3456 0 5.41667 0C7.48773 0 9.16667 1.67893 9.16667 3.75ZM18.3333 3.75C18.3333 5.82107 16.6544 7.5 14.5833 7.5C12.5123 7.5 10.8333 5.82107 10.8333 3.75C10.8333 1.67893 12.5123 0 14.5833 0C16.6544 0 18.3333 1.67893 18.3333 3.75ZM0 13.3333V18.3333H7.5V9.16667H4.16667C1.83333 9.16667 0 11 0 13.3333ZM9.16667 18.3333V13.3333C9.16667 11 11 9.16667 13.3333 9.16667H18.3333V18.3333H9.16667Z" fill="#B3B3B3"/>
</svg>
